<?xml version="1.0" encoding="UTF-8"?>
<svg width="60px" height="50px" viewBox="0 0 60 50" version="1.1" xmlns="http://www.w3.org/2000/svg" xmlns:xlink="http://www.w3.org/1999/xlink">
    <!-- Generator: Sketch 49 (51002) - http://www.bohemiancoding.com/sketch -->
    <title>3 ans</title>
    <desc>Created with Sketch.</desc>
    <defs>
        <linearGradient x1="50%" y1="2.54922327%" x2="50%" y2="100%" id="linearGradient-1">
            <stop stop-color="#0266CB" offset="0%"></stop>
            <stop stop-color="#0099FF" offset="100%"></stop>
        </linearGradient>
    </defs>
    <g id="Page-1" stroke="none" stroke-width="1" fill="none" fill-rule="evenodd">
        <g id="propo-1---home-copy" transform="translate(-101.000000, -961.000000)">
            <g id="3-ans" transform="translate(101.000000, 961.000000)">
                <path d="M51.9834573,38.1896032 L47.3546006,39.7471429 C47.0444404,39.8606349 46.5560599,40.0177778 45.8890531,40.2185714 C45.2224523,40.4197619 44.7340718,40.558254 44.4235056,40.6336508 C45.3775324,40.8384127 46.4204663,41.1380159 47.5523074,41.5320635 L51.9834573,43.0324603 L51.9834573,38.1896032 Z M59.101309,35.8138095 L54.3790794,37.4733333 L54.3790794,43.8280952 L59.101309,45.4538889 L59.101309,48.3185714 L42.0278835,42.0999206 L42.0278835,39.1443651 L59.101309,32.9257143 L59.101309,35.8138095 Z" id="Fill-4" fill="#0099FF"></path>
                <path d="M59.1012278,16.8850397 L59.1012278,20.2163889 L45.5520178,28.3898016 L45.5520178,28.4810714 L46.3079318,28.4239286 C47.7499331,28.3179762 49.0685199,28.2648016 50.2624742,28.2648016 L59.1012278,28.2648016 L59.1012278,30.7318651 L42.0976289,30.7318651 L42.0976289,27.4350397 L55.5770123,19.2838492 L55.5770123,19.2155952 C55.398792,19.2306746 54.7496478,19.2608333 53.6291738,19.3068651 C52.5086998,19.3521032 51.6346489,19.3747222 51.0066151,19.3747222 L42.0976289,19.3747222 L42.0976289,16.8850397 L59.1012278,16.8850397 Z" id="Fill-6" fill="#0099FF"></path>
                <path d="M54.4839006,2.91361111 C55.9961345,2.91361111 57.1819695,3.44813492 58.0430294,4.51638889 C58.9036833,5.58503968 59.3336043,7.05924603 59.3336043,8.93900794 C59.3336043,10.8187698 59.0352172,12.3572619 58.4384431,13.5540873 L55.8097948,13.5540873 C56.1743548,12.7965476 56.4613748,11.9913889 56.6704488,11.1390079 C56.8799287,10.2858333 56.9846686,9.49218254 56.9846686,8.7572619 C56.9846686,7.68107143 56.7751887,6.88702381 56.3562289,6.37551587 C55.937675,5.86400794 55.3758141,5.60805556 54.6698343,5.60805556 C54.0344931,5.60805556 53.4953665,5.84297619 53.0536724,6.31242063 C52.6115723,6.78265873 52.0882785,7.75289683 51.4833849,9.2227381 C50.8553511,10.7390079 50.1380042,11.8076587 49.3317501,12.4290873 C48.5254959,13.0505159 47.5564483,13.3612302 46.4242012,13.3612302 C45.0053401,13.3612302 43.8885199,12.8687698 43.0745523,11.8834524 C42.2605848,10.8981349 41.8533981,9.57551587 41.8533981,7.91559524 C41.8533981,6.3243254 42.2102447,4.74059524 42.9235319,3.16361111 L45.1912739,4.02789683 C44.5555267,5.5056746 44.2376531,6.8243254 44.2376531,7.98384921 C44.2376531,8.86321429 44.433736,9.53027778 44.82509,9.98464286 C45.2164439,10.4394048 45.7340542,10.6667857 46.3775148,10.6667857 C46.8196149,10.6667857 47.1975719,10.5759127 47.5117917,10.3941667 C47.8256057,10.2124206 48.1223689,9.91281746 48.4012695,9.49615079 C48.680576,9.0790873 49.0487898,8.32869048 49.5063167,7.24496032 C50.0259568,6.02472222 50.5102776,5.1306746 50.9600911,4.56202381 C51.4099045,3.99376984 51.9177716,3.57710317 52.4836921,3.31162698 C53.0496127,3.04615079 53.7162135,2.91361111 54.4839006,2.91361111" id="Fill-8" fill="#0099FF"></path>
                <path d="M33.7969465,11.5294841 C33.7969465,14.5155952 32.864842,17.0790873 31.0002271,19.2203571 C29.1356122,21.3608333 26.4395732,22.9148016 22.9133278,23.8806746 L22.9133278,24.0782937 C31.1350088,25.0886111 35.2458492,28.8870238 35.2458492,35.4747222 C35.2458492,39.9540873 33.4315745,43.4782937 29.8042429,46.0473413 C26.1760994,48.6163889 21.1384321,49.9009127 14.6912409,49.9009127 C12.0406704,49.9009127 9.58658876,49.7144048 7.32899605,49.3409921 C5.07140334,48.9679762 2.62828286,48.2870238 4.05968839e-05,47.2989286 L4.05968839e-05,36.495754 C2.15654707,37.5719444 4.35202655,38.3679762 6.58769695,38.8838492 C8.82255541,39.3997222 10.8840652,39.6576587 12.7710083,39.6576587 C15.6907362,39.6576587 17.8196368,39.2572619 19.1560862,38.4556746 C20.4925357,37.6540873 21.1611663,36.3969444 21.1611663,34.684246 C21.1611663,33.3663889 20.8124391,32.3513095 20.1166085,31.6374206 C19.419966,30.9243254 18.2970562,30.3858333 16.7466612,30.0231349 C15.1970781,29.6612302 13.1753533,29.479881 10.6818927,29.479881 L7.6488995,29.479881 L7.6488995,19.6977381 L10.7492835,19.6977381 C17.5102886,19.6977381 20.891603,18.0072619 20.891603,14.6255159 C20.891603,13.3525 20.3914494,12.4080556 19.3919541,11.7929762 C18.3920529,11.1782937 17.0503259,10.870754 15.3655552,10.870754 C12.2201086,10.870754 8.96302063,11.9028968 5.59347926,13.9667857 L0.0674314242,5.27115079 C2.67293943,3.51519841 5.34096664,2.26321429 8.07029515,1.51678571 C10.7996237,0.770357143 13.9276136,0.396547619 17.4546708,0.396547619 C22.5536395,0.396547619 26.5524325,1.38503968 29.4502381,3.36083333 C32.3480437,5.33742063 33.7969465,8.06043651 33.7969465,11.5294841" id="Fill-1" fill="url(#linearGradient-1)"></path>
            </g>
        </g>
    </g>
</svg>