<?xml version="1.0" encoding="UTF-8"?>
<svg width="54px" height="47px" viewBox="0 0 54 47" version="1.1" xmlns="http://www.w3.org/2000/svg" xmlns:xlink="http://www.w3.org/1999/xlink">
    <!-- Generator: Sketch 49 (51002) - http://www.bohemiancoding.com/sketch -->
    <title>Page 1</title>
    <desc>Created with Sketch.</desc>
    <defs>
        <polygon id="path-1" points="0.00036147541 0.362526316 48.6927057 0.362526316 48.6927057 6.73628421 0.00036147541 6.73628421"></polygon>
        <polygon id="path-3" points="0.113152137 0.0584543466 45.7825812 0.0584543466 45.7825812 13.9347833 0.113152137 13.9347833"></polygon>
    </defs>
    <g id="Page-1" stroke="none" stroke-width="1" fill="none" fill-rule="evenodd">
        <g id="propo-1---home-copy" transform="translate(-909.000000, -963.000000)">
            <g id="Page-1" transform="translate(909.000000, 963.000000)">
                <g id="Group-3">
                    <mask id="mask-2" fill="white">
                        <use xlink:href="#path-1"></use>
                    </mask>
                    <g id="Clip-2"></g>
                    <path d="M48.6927057,4.43586316 C48.6927057,2.19549474 46.6941484,0.362231579 44.2517795,0.362231579 L4.44088607,0.362231579 C1.99811557,0.362231579 0.00036147541,2.19549474 0.00036147541,4.43586316 L0.00036147541,6.73628421 L48.6927057,6.73628421 L48.6927057,4.43586316 Z" id="Fill-1" fill="#007ACC" mask="url(#mask-2)"></path>
                </g>
                <path d="M6.22412165,21.8946842 L7.18501218,16.5498086 L7.61794961,14.1424221 C7.69070218,13.7356447 7.82348556,13.3543153 8,13 L0,13 L0,26.6714808 C0,29.0522446 1.97743875,31 4.39536848,31 L4.58738757,31 L6.22412165,21.8946842 Z" id="Fill-4" fill="#007ACC"></path>
                <polygon id="Fill-6" fill="#007ACC" points="48 13 26 13 48 17"></polygon>
                <g id="Group-10" transform="translate(8.000000, 11.000000)">
                    <mask id="mask-4" fill="white">
                        <use xlink:href="#path-3"></use>
                    </mask>
                    <g id="Clip-9"></g>
                    <path d="M42.1937162,6.56106111 L40.6706051,6.27017222 L18.9951692,2.47267222 L5.57732308,0.124561111 C3.63313504,-0.217272222 1.75028034,0.796561111 0.91874188,2.47267222 C0.744177778,2.82617222 0.613254701,3.20572778 0.539340171,3.60861667 L0.113152137,5.99911667 L40.6706051,13.1017833 L45.2871179,13.9347833 L45.7160581,11.5442833 C46.1335966,9.21522778 44.5460068,6.97367222 42.1937162,6.56106111" id="Fill-8" fill="#007ACC" mask="url(#mask-4)"></path>
                </g>
                <path d="M6.47834829,22 L4.847651,31.0965985 L4.06716663,35.4491521 C3.64681439,37.791451 5.24383596,40.0461434 7.61658767,40.4607095 L44.5121043,46.9338082 C46.8844598,47.3483743 49.1684661,45.7718496 49.5888183,43.4299419 L52,29.9803987 L47.5591628,29.1809899 L6.47834829,22 Z" id="Fill-11" fill="#007ACC"></path>
            </g>
        </g>
    </g>
</svg>