<?xml version="1.0" encoding="UTF-8"?>
<svg width="102px" height="50px" viewBox="0 0 102 50" version="1.1" xmlns="http://www.w3.org/2000/svg" xmlns:xlink="http://www.w3.org/1999/xlink">
    <!-- Generator: Sketch 49 (51002) - http://www.bohemiancoding.com/sketch -->
    <title>camion</title>
    <desc>Created with Sketch.</desc>
    <defs>
        <linearGradient x1="50%" y1="3.23097203%" x2="50%" y2="97.0782153%" id="linearGradient-1">
            <stop stop-color="#0266CB" offset="0%"></stop>
            <stop stop-color="#0099FF" offset="100%"></stop>
        </linearGradient>
    </defs>
    <g id="Page-1" stroke="none" stroke-width="1" fill="none" fill-rule="evenodd">
        <g id="propo-1---home-copy" transform="translate(-292.000000, -961.000000)">
            <g id="camion" transform="translate(292.000000, 961.000000)">
                <path d="M44.8295097,38.0989382 C41.5583799,37.65319 38.5451527,39.9431348 38.0990196,43.2142647 C37.6528865,46.4850097 39.9432162,49.4986218 43.2139611,49.94437 C46.4850909,50.3908881 49.4983181,48.1005583 49.9444512,44.8294284 C50.3905844,41.5582985 48.1006395,38.5450713 44.8295097,38.0989382" id="Fill-1" fill="#0099FF"></path>
                <path d="M85.0467329,38.0989382 C81.775684,37.65319 78.7625314,39.9431348 78.3164093,43.2142647 C77.8702872,46.4850097 80.1605603,49.4986218 83.4316092,49.94437 C86.7022731,50.3908881 89.7154257,48.1005583 90.1619327,44.8294284 C90.6076699,41.5582985 88.3177818,38.5450713 85.0467329,38.0989382" id="Fill-3" fill="#0099FF"></path>
                <path d="M85.7051724,25.9288296 L83.1314832,15.6078612 L87.0774864,15.6078612 L96.8562245,25.9288296 L85.7051724,25.9288296 Z M101.339063,24.7901743 L88.9570122,12.4029022 C88.5214586,11.8882801 87.9245741,11.5987318 87.3016684,11.5987318 L82.3572547,11.5987318 L80.5974261,11.5987318 L79.5453721,3.16158539 C79.5453721,1.4156994 78.0949948,0 76.3059425,0 L23.4342231,0 C21.6451708,0 20.1947934,1.4156994 20.1947934,3.16158539 L21.0875181,9.41520208 L6.95284407,9.41520208 C5.78949971,9.41520208 4.83792726,10.3440228 4.83792726,11.4791613 C4.83792726,12.6146905 5.78949971,13.543902 6.95284407,13.543902 L21.6771968,13.543902 L43.3359786,13.543902 C44.8644194,13.543902 46.1150346,14.4727228 46.1150346,15.6078612 C46.1150346,16.7429997 44.8644194,17.6718205 43.3359786,17.6718205 L13.0726119,17.6718205 L2.77945626,17.6718205 C1.25061521,17.6718205 0,18.6010319 0,19.7361704 C0,20.8716997 1.25061521,21.8005204 2.77945626,21.8005204 L10.2463176,21.8005204 L10.2467179,21.8005204 L41.8387632,21.8005204 C43.0021076,21.8005204 43.95368,22.7293411 43.95368,23.8648704 C43.95368,25.0000089 43.0021076,25.9288296 41.8387632,25.9288296 L23.4454322,25.9288296 L7.67342902,25.9288296 C6.51008466,25.9288296 5.5585122,26.8580411 5.5585122,27.9931796 C5.5585122,29.1283181 6.51008466,30.0571388 7.67342902,30.0571388 L10.2463176,30.0571388 L10.2467179,30.0571388 L33.3230505,30.0571388 C34.4863948,30.0571388 35.4379673,30.9859595 35.4379673,32.1218795 C35.4379673,33.257018 34.4863948,34.1858387 33.3230505,34.1858387 L24.6239889,34.1858387 L25.5735597,40.8380239 C25.5735597,42.5843006 27.0243374,44 28.8133897,44 L35.5052219,44 C35.5060225,43.6303473 35.530042,43.2587409 35.5820843,42.8859622 C36.2113951,38.3801853 40.4788593,35.2143016 45.0950065,35.8289566 C49.3276424,36.3920322 52.4033392,39.9412449 52.4009372,44 L75.7959285,44 C75.7967291,43.6303473 75.8207486,43.2587409 75.8727909,42.8859622 C76.502502,38.3801853 80.7687652,35.2143016 85.3861134,35.8289566 C89.618349,36.3920322 92.6940458,39.9412449 92.6916438,44 L99.6841201,44 C100.963158,44 102,42.802341 102,41.3245118 L102,26.6611014 C102,25.9616529 101.762607,25.2899479 101.339063,24.7901743 Z" id="Fill-5" fill="url(#linearGradient-1)"></path>
            </g>
        </g>
    </g>
</svg>