<?xml version="1.0" encoding="UTF-8"?>
<svg width="44px" height="57px" viewBox="0 0 44 57" version="1.1" xmlns="http://www.w3.org/2000/svg" xmlns:xlink="http://www.w3.org/1999/xlink">
    <!-- Generator: Sketch 49 (51002) - http://www.bohemiancoding.com/sketch -->
    <title>tel</title>
    <desc>Created with Sketch.</desc>
    <defs>
        <linearGradient x1="50%" y1="0%" x2="50%" y2="100%" id="linearGradient-1">
            <stop stop-color="#0266CB" offset="0%"></stop>
            <stop stop-color="#0099FF" offset="100%"></stop>
        </linearGradient>
    </defs>
    <g id="Page-1" stroke="none" stroke-width="1" fill="none" fill-rule="evenodd">
        <g id="propo-1---home-copy" transform="translate(-723.000000, -958.000000)" fill="url(#linearGradient-1)">
            <path d="M769.681436,999.678802 C767.212616,998.318175 764.733967,996.974247 762.273011,995.600133 C761.482726,995.158579 760.746831,994.62454 759.968342,994.161471 C759.091559,993.639956 758.221329,993.675281 757.448082,994.356397 C756.845211,994.887867 756.262655,995.447596 755.722365,996.039759 C754.683724,997.177843 753.697835,998.361849 752.658211,999.49897 C751.981947,1000.23885 751.141861,1000.41451 750.234934,999.919329 C748.861438,999.169491 747.483027,998.424148 746.1459,997.615222 C743.738022,996.157935 741.533286,994.439891 739.534639,992.473292 C736.673626,989.65891 734.548508,986.32751 732.558708,982.902981 C732.388332,982.60979 732.277915,982.281595 732.150788,981.965282 C731.910622,981.366696 731.984998,980.794764 732.433547,980.331374 C733.048868,979.6965 733.694332,979.087959 734.354213,978.497402 C735.516049,977.457583 736.752589,976.492909 737.855449,975.396893 C738.751563,974.506721 738.764341,973.782895 738.116911,972.702293 C737.648048,971.918736 737.081547,971.190735 736.623496,970.401719 C735.378765,968.256572 734.172697,966.09023 732.94271,963.937055 C732.52496,963.206164 732.130146,962.451187 731.354278,962 L729.860208,962 C729.139384,962.157032 728.423803,962.345857 727.696427,962.464996 C725.54051,962.818881 724.011054,964.018622 722.858392,965.780982 C721.691641,967.564858 720.703458,969.419704 720.268343,971.517324 C720.176929,971.95663 720.089448,972.396256 720,972.835562 L720,975.275827 C720.085188,975.735685 720.123523,976.209994 720.263428,976.653474 C720.85909,978.540433 721.465565,980.424823 722.103166,982.298936 C723.289903,985.78769 724.947797,989.04491 727.183987,992.007011 C729.988645,995.722483 733.213674,999.057095 736.76504,1002.09113 C739.309546,1004.26518 741.991336,1006.25683 745.014207,1007.75361 C748.154048,1009.3082 751.470818,1010.43633 754.826906,1011.43986 C756.966768,1012.07955 759.156105,1012.17782 761.358876,1011.70126 C763.98857,1011.13286 766.29029,1009.91257 768.343326,1008.24847 C768.928831,1007.77416 769.482227,1007.15824 769.8007,1006.49221 C770.549701,1004.92638 770.894713,1003.23531 770.996284,1001.50154 C771.031997,1000.89235 770.811163,1000.42703 770.297085,1000.08921 C770.090995,999.95369 769.897028,999.79762 769.681436,999.678802 Z" id="tel" transform="translate(745.500000, 987.000000) rotate(15.000000) translate(-745.500000, -987.000000) "></path>
        </g>
    </g>
</svg>